<?xml version="1.0" encoding="iso-8859-1"?>
<!-- Generator: Adobe Illustrator 22.1.0, SVG Export Plug-In . SVG Version: 6.00 Build 0)  -->
<svg version="1.1" id="Layer_1" xmlns="http://www.w3.org/2000/svg" xmlns:xlink="http://www.w3.org/1999/xlink" x="0px" y="0px"
	 viewBox="0 0 27 29" style="enable-background:new 0 0 27 29;" xml:space="preserve">
<g id="blood-stain_2_">
	<path d="M22.5,13c-1.934,0-3.5,1.567-3.5,3.5c0,1.395,0.82,2.588,2,3.15v4.85c0,0.276,0.224,0.5,0.5,0.5c0.276,0,0.5-0.224,0.5-0.5
		v-4.551C22.165,19.974,22.329,20,22.5,20c0.172,0,0.335-0.026,0.5-0.051V27.5c0,0.276,0.224,0.5,0.5,0.5c0.276,0,0.5-0.224,0.5-0.5
		v-7.85c1.18-0.563,2-1.756,2-3.15C26,14.567,24.433,13,22.5,13z"/>
	<path d="M22,6.5C22,4.015,19.985,2,17.5,2c-2.183,0-4.001,1.555-4.411,3.617C12.017,4.617,10.582,4,9,4c-3.314,0-6,2.687-6,6
		c0,1.774,0.775,3.364,2,4.463V21c0,0.553,0.448,1,1,1c0.552,0,1-0.447,1-1v-5.349c0.322,0.114,0.655,0.2,1,0.259V27
		c0,0.553,0.448,1,1,1c0.552,0,1-0.447,1-1V15.91c0.345-0.059,0.679-0.145,1-0.259V17c0,0.553,0.448,1,1,1c0.552,0,1-0.447,1-1
		v-2.537c1.171-1.05,1.924-2.549,1.988-4.229c0.31,0.208,0.654,0.363,1.012,0.49V21.5c0,0.276,0.224,0.5,0.5,0.5
		c0.276,0,0.5-0.224,0.5-0.5V10.949C17.166,10.969,17.329,11,17.5,11C19.985,11,22,8.985,22,6.5z"/>
	<circle cx="11.5" cy="1.5" r="1.5"/>
	<circle cx="25.5" cy="8.5" r="1.5"/>
	<circle cx="1.5" cy="16.5" r="1.5"/>
	<path d="M13.5,21c-0.828,0-1.5,0.672-1.5,1.5c0,0.652,0.419,1.201,1,1.408V28.5c0,0.276,0.224,0.5,0.5,0.5
		c0.276,0,0.5-0.224,0.5-0.5v-4.592c0.581-0.207,1-0.756,1-1.408C15,21.672,14.328,21,13.5,21z"/>
</g>
</svg>
